<svg xmlns="http://www.w3.org/2000/svg" viewBox="0 0 64 64" fill="none">
  <rect width="64" height="64" rx="14" fill="#F97316"/>
  <rect x="8" y="18" width="48" height="28" rx="6" fill="white"/>
  <rect x="10" y="20" width="44" height="20" rx="4" fill="#1D4ED8"/>
  <rect x="12" y="22" width="8" height="7" rx="2" fill="#93C5FD"/>
  <rect x="22" y="22" width="8" height="7" rx="2" fill="#93C5FD"/>
  <rect x="32" y="22" width="8" height="7" rx="2" fill="#93C5FD"/>
  <rect x="42" y="22" width="8" height="7" rx="2" fill="#93C5FD"/>
  <rect x="10" y="32" width="20" height="6" rx="2" fill="#60A5FA"/>
  <rect x="34" y="32" width="16" height="6" rx="2" fill="#F97316"/>
  <circle cx="18" cy="48" r="5" fill="#1E293B"/>
  <circle cx="18" cy="48" r="2.5" fill="#94A3B8"/>
  <circle cx="46" cy="48" r="5" fill="#1E293B"/>
  <circle cx="46" cy="48" r="2.5" fill="#94A3B8"/>
  <rect x="6" y="24" width="4" height="10" rx="2" fill="#F97316"/>
  <rect x="54" y="24" width="4" height="10" rx="2" fill="#F97316"/>
</svg>
